<?xml version="1.0" encoding="UTF-8"?>
<!DOCTYPE svg PUBLIC "-//W3C//DTD SVG 1.1//EN" "http://www.w3.org/Graphics/SVG/1.1/DTD/svg11.dtd">
<!-- Creator: CorelDRAW 2017 -->
<svg xmlns="http://www.w3.org/2000/svg" xml:space="preserve" width="1.08315in" height="1.21616in" version="1.1" style="shape-rendering:geometricPrecision; text-rendering:geometricPrecision; image-rendering:optimizeQuality; fill-rule:evenodd; clip-rule:evenodd"
viewBox="0 0 311.32 349.55"
 xmlns:xlink="http://www.w3.org/1999/xlink">
 <defs>
  <style type="text/css">
   <![CDATA[
    .fil1 {fill:white}
    .fil0 {fill:white}
   ]]>
  </style>
 </defs>
 <g id="Layer_x0020_1">
  <metadata id="CorelCorpID_0Corel-Layer"/>
  <path class="fil0" d="M117.21 229.18l52.43 -0.11c14.3,0.3 18.41,1.08 16.06,11.25 -1.27,4.59 -63.74,2.73 -79.2,2.73 -8.89,0 -17.19,-13.91 10.71,-13.87zm24.8 -24.36c-44.55,0 -44.22,-68.27 2.73,-68.27 6.79,0 -3.13,1.04 8.99,7.42 4.37,2.3 21.05,1.48 21.05,28.08 0,18.31 -18.91,32.77 -32.77,32.77zm8.19 -79.2c-22.77,-43.04 -18.63,-54.62 30.04,-54.62 9.49,0 22.06,12.48 -6.04,34.92l-24 19.7zm-150.2 -8.19c0,22.37 43.36,1.57 50.07,-1.82l50.97 -25.49c1.52,18.2 11.23,26.45 19.12,38.23 -35.7,23.91 -30.9,49.36 -10.92,79.2 -26.66,0 -81.45,-3.47 -81.93,2.73 -3.5,43.35 -2.73,92.64 -2.73,122.89 0,8.39 2.53,16.39 10.92,16.39l213.01 0c6.29,0 8.19,-1.9 8.19,-8.19 0,-145.92 11.18,-134.15 -35.48,-133.83 -16.38,0.11 -32.79,0.02 -49.18,0.02 11.47,-17.13 28.63,-33.67 5.46,-68.27 9.5,-2.54 23,-12.97 33.61,-18.27 12.54,-6.27 22.92,-10 35.58,-16.31 12.09,-6.02 22.32,-11.57 32.69,-19.2 9.07,-6.68 21.99,-20.03 31.93,-22.68l0 -62.81 -41.25 13.37c-26.9,7.74 -67.18,3.19 -96.46,-1.31 -41.82,-6.43 -66.22,22.67 -112.44,54.57 -10.74,7.42 -61.18,39.76 -61.18,50.79z"/>
  <g id="_942859760">
   <g>
    <path class="fil1" d="M156.56 161.89c-0.2,-0.2 -0.46,-0.3 -0.78,-0.3l-5.77 0c-0.38,-1.86 -1.1,-3.48 -2.16,-4.85l7.85 0c0.31,0 0.57,-0.1 0.78,-0.3 0.2,-0.2 0.3,-0.46 0.3,-0.78l0 -3.44c0,-0.31 -0.1,-0.57 -0.3,-0.78 -0.2,-0.2 -0.46,-0.3 -0.78,-0.3l-28.05 0c-0.31,0 -0.57,0.1 -0.78,0.3 -0.2,0.2 -0.3,0.46 -0.3,0.78l0 4.48c0,0.29 0.11,0.54 0.32,0.76 0.21,0.21 0.47,0.32 0.76,0.32l4.89 0c4.74,0 7.75,1.27 9.04,3.81l-13.92 0c-0.31,0 -0.57,0.1 -0.78,0.3 -0.2,0.2 -0.3,0.46 -0.3,0.78l0 3.44c0,0.31 0.1,0.57 0.3,0.77 0.2,0.2 0.46,0.3 0.78,0.3l14.4 0c-0.49,1.84 -1.65,3.25 -3.46,4.22 -1.81,0.97 -4.2,1.45 -7.16,1.45l-3.78 0c-0.29,0 -0.54,0.11 -0.76,0.32 -0.21,0.21 -0.32,0.47 -0.32,0.76l0 4.28c0,0.29 0.1,0.54 0.3,0.74 4.31,4.59 9.91,11 16.79,19.25 0.2,0.27 0.48,0.4 0.84,0.4l6.57 0c0.47,0 0.8,-0.2 0.98,-0.61 0.23,-0.41 0.18,-0.79 -0.13,-1.15 -6.56,-8.05 -11.72,-14.07 -15.47,-18.07 3.82,-0.45 6.92,-1.69 9.31,-3.71 2.38,-2.02 3.83,-4.65 4.35,-7.89l5.66 0c0.31,0 0.57,-0.1 0.78,-0.3 0.2,-0.2 0.3,-0.46 0.3,-0.78l0 -3.44c0,-0.31 -0.1,-0.57 -0.3,-0.78z"/>
   </g>
   <g>
   </g>
   <g>
   </g>
   <g>
   </g>
   <g>
   </g>
   <g>
   </g>
   <g>
   </g>
   <g>
   </g>
   <g>
   </g>
   <g>
   </g>
   <g>
   </g>
   <g>
   </g>
   <g>
   </g>
   <g>
   </g>
   <g>
   </g>
   <g>
   </g>
  </g>
 </g>
</svg>
